<svg xmlns="http://www.w3.org/2000/svg" viewBox="0 0 900 675" width="900" height="675" role="img" aria-label="Pola anyaman garis silang" preserveAspectRatio="xMidYMid slice">
<defs><linearGradient id="key-service-pewarnaan" x1="0" y1="0" x2="1" y2="1"><stop offset="0" stop-color="#ffffff" stop-opacity="0.055"/><stop offset="0.55" stop-color="#ffffff" stop-opacity="0"/></linearGradient><radialGradient id="vig-service-pewarnaan" cx="0.5" cy="0.42" r="0.78"><stop offset="0.45" stop-color="#000000" stop-opacity="0"/><stop offset="1" stop-color="#000000" stop-opacity="0.55"/></radialGradient><clipPath id="clip-service-pewarnaan"><rect x="0" y="0" width="900" height="675"/></clipPath></defs>
<rect width="900" height="675" fill="#0e100f"/>
<g clip-path="url(#clip-service-pewarnaan)">
<rect width="900" height="675" fill="#171a19" opacity="0.45"/>
<line x1="-675" y1="0" x2="0" y2="675" stroke="#454b49" stroke-width="2.49" opacity="0.39"/>
<line x1="-642.54" y1="0" x2="32.46" y2="675" stroke="#454b49" stroke-width="1.66" opacity="0.21"/>
<line x1="-610.08" y1="0" x2="64.92" y2="675" stroke="#454b49" stroke-width="3.81" opacity="0.43"/>
<line x1="-577.63" y1="0" x2="97.37" y2="675" stroke="#454b49" stroke-width="1.87" opacity="0.22"/>
<line x1="-545.17" y1="0" x2="129.83" y2="675" stroke="#454b49" stroke-width="1.64" opacity="0.36"/>
<line x1="-512.71" y1="0" x2="162.29" y2="675" stroke="#454b49" stroke-width="1.71" opacity="0.28"/>
<line x1="-480.25" y1="0" x2="194.75" y2="675" stroke="#454b49" stroke-width="2.64" opacity="0.41"/>
<line x1="-447.79" y1="0" x2="227.21" y2="675" stroke="#454b49" stroke-width="1.97" opacity="0.46"/>
<line x1="-415.34" y1="0" x2="259.66" y2="675" stroke="#454b49" stroke-width="3.76" opacity="0.27"/>
<line x1="-382.88" y1="0" x2="292.12" y2="675" stroke="#ff6a3d" stroke-width="7.14" opacity="1"/>
<line x1="-350.42" y1="0" x2="324.58" y2="675" stroke="#454b49" stroke-width="1.8" opacity="0.21"/>
<line x1="-317.96" y1="0" x2="357.04" y2="675" stroke="#454b49" stroke-width="3.04" opacity="0.22"/>
<line x1="-285.5" y1="0" x2="389.5" y2="675" stroke="#454b49" stroke-width="1.64" opacity="0.26"/>
<line x1="-253.04" y1="0" x2="421.96" y2="675" stroke="#454b49" stroke-width="2.99" opacity="0.27"/>
<line x1="-220.59" y1="0" x2="454.41" y2="675" stroke="#454b49" stroke-width="2.87" opacity="0.26"/>
<line x1="-188.13" y1="0" x2="486.87" y2="675" stroke="#454b49" stroke-width="2.95" opacity="0.25"/>
<line x1="-155.67" y1="0" x2="519.33" y2="675" stroke="#454b49" stroke-width="2.77" opacity="0.28"/>
<line x1="-123.21" y1="0" x2="551.79" y2="675" stroke="#454b49" stroke-width="2.01" opacity="0.26"/>
<line x1="-90.75" y1="0" x2="584.25" y2="675" stroke="#454b49" stroke-width="2.37" opacity="0.3"/>
<line x1="-58.3" y1="0" x2="616.7" y2="675" stroke="#454b49" stroke-width="1.64" opacity="0.32"/>
<line x1="-25.84" y1="0" x2="649.16" y2="675" stroke="#454b49" stroke-width="3.16" opacity="0.42"/>
<line x1="6.62" y1="0" x2="681.62" y2="675" stroke="#454b49" stroke-width="3.75" opacity="0.44"/>
<line x1="39.08" y1="0" x2="714.08" y2="675" stroke="#454b49" stroke-width="1.98" opacity="0.31"/>
<line x1="71.54" y1="0" x2="746.54" y2="675" stroke="#454b49" stroke-width="3.33" opacity="0.29"/>
<line x1="103.99" y1="0" x2="778.99" y2="675" stroke="#454b49" stroke-width="2.38" opacity="0.33"/>
<line x1="136.45" y1="0" x2="811.45" y2="675" stroke="#454b49" stroke-width="1.78" opacity="0.29"/>
<line x1="168.91" y1="0" x2="843.91" y2="675" stroke="#454b49" stroke-width="1.64" opacity="0.38"/>
<line x1="201.37" y1="0" x2="876.37" y2="675" stroke="#454b49" stroke-width="1.96" opacity="0.22"/>
<line x1="233.83" y1="0" x2="908.83" y2="675" stroke="#454b49" stroke-width="2.67" opacity="0.32"/>
<line x1="266.29" y1="0" x2="941.29" y2="675" stroke="#454b49" stroke-width="2.49" opacity="0.32"/>
<line x1="298.74" y1="0" x2="973.74" y2="675" stroke="#454b49" stroke-width="2.7" opacity="0.36"/>
<line x1="331.2" y1="0" x2="1006.2" y2="675" stroke="#454b49" stroke-width="2.13" opacity="0.4"/>
<line x1="363.66" y1="0" x2="1038.66" y2="675" stroke="#454b49" stroke-width="3.25" opacity="0.29"/>
<line x1="396.12" y1="0" x2="1071.12" y2="675" stroke="#454b49" stroke-width="1.73" opacity="0.23"/>
<line x1="428.58" y1="0" x2="1103.58" y2="675" stroke="#454b49" stroke-width="3.63" opacity="0.27"/>
<line x1="461.03" y1="0" x2="1136.03" y2="675" stroke="#454b49" stroke-width="2.7" opacity="0.49"/>
<line x1="493.49" y1="0" x2="1168.49" y2="675" stroke="#454b49" stroke-width="3.31" opacity="0.37"/>
<line x1="525.95" y1="0" x2="1200.95" y2="675" stroke="#454b49" stroke-width="2.91" opacity="0.48"/>
<line x1="558.41" y1="0" x2="1233.41" y2="675" stroke="#454b49" stroke-width="2.93" opacity="0.31"/>
<line x1="590.87" y1="0" x2="1265.87" y2="675" stroke="#454b49" stroke-width="3.75" opacity="0.47"/>
<line x1="623.32" y1="0" x2="1298.32" y2="675" stroke="#454b49" stroke-width="2.11" opacity="0.27"/>
<line x1="655.78" y1="0" x2="1330.78" y2="675" stroke="#454b49" stroke-width="3.35" opacity="0.36"/>
<line x1="688.24" y1="0" x2="1363.24" y2="675" stroke="#454b49" stroke-width="3.39" opacity="0.36"/>
<line x1="720.7" y1="0" x2="1395.7" y2="675" stroke="#454b49" stroke-width="1.96" opacity="0.22"/>
<line x1="753.16" y1="0" x2="1428.16" y2="675" stroke="#454b49" stroke-width="2.39" opacity="0.37"/>
<line x1="785.61" y1="0" x2="1460.61" y2="675" stroke="#454b49" stroke-width="3.85" opacity="0.37"/>
<line x1="818.07" y1="0" x2="1493.07" y2="675" stroke="#454b49" stroke-width="2" opacity="0.28"/>
<line x1="850.53" y1="0" x2="1525.53" y2="675" stroke="#454b49" stroke-width="1.71" opacity="0.35"/>
<line x1="882.99" y1="0" x2="1557.99" y2="675" stroke="#454b49" stroke-width="3.15" opacity="0.34"/>
<line x1="915.45" y1="0" x2="1590.45" y2="675" stroke="#454b49" stroke-width="2.1" opacity="0.39"/>
<line x1="947.91" y1="0" x2="1622.91" y2="675" stroke="#454b49" stroke-width="2.5" opacity="0.38"/>
<line x1="980.36" y1="0" x2="1655.36" y2="675" stroke="#454b49" stroke-width="2.59" opacity="0.31"/>
<line x1="1012.82" y1="0" x2="1687.82" y2="675" stroke="#454b49" stroke-width="3.36" opacity="0.31"/>
<line x1="1045.28" y1="0" x2="1720.28" y2="675" stroke="#454b49" stroke-width="2.98" opacity="0.23"/>
<line x1="1077.74" y1="0" x2="1752.74" y2="675" stroke="#454b49" stroke-width="1.9" opacity="0.27"/>
<line x1="1110.2" y1="0" x2="1785.2" y2="675" stroke="#454b49" stroke-width="2.62" opacity="0.33"/>
<line x1="1142.65" y1="0" x2="1817.65" y2="675" stroke="#454b49" stroke-width="2.39" opacity="0.5"/>
<line x1="1175.11" y1="0" x2="1850.11" y2="675" stroke="#454b49" stroke-width="2.35" opacity="0.46"/>
<line x1="1207.57" y1="0" x2="1882.57" y2="675" stroke="#454b49" stroke-width="2.27" opacity="0.39"/>
<line x1="1240.03" y1="0" x2="1915.03" y2="675" stroke="#454b49" stroke-width="3.81" opacity="0.42"/>
<line x1="1272.49" y1="0" x2="1947.49" y2="675" stroke="#454b49" stroke-width="2.43" opacity="0.49"/>
<line x1="1304.94" y1="0" x2="1979.94" y2="675" stroke="#454b49" stroke-width="2.89" opacity="0.35"/>
<line x1="1337.4" y1="0" x2="2012.4" y2="675" stroke="#454b49" stroke-width="2.61" opacity="0.39"/>
<line x1="1369.86" y1="0" x2="2044.86" y2="675" stroke="#454b49" stroke-width="3.87" opacity="0.21"/>
<line x1="1402.32" y1="0" x2="2077.32" y2="675" stroke="#454b49" stroke-width="2.08" opacity="0.41"/>
<line x1="1434.78" y1="0" x2="2109.78" y2="675" stroke="#454b49" stroke-width="2.6" opacity="0.33"/>
<line x1="1467.24" y1="0" x2="2142.24" y2="675" stroke="#454b49" stroke-width="2.93" opacity="0.26"/>
<line x1="1499.69" y1="0" x2="2174.69" y2="675" stroke="#454b49" stroke-width="2.79" opacity="0.22"/>
<line x1="1532.15" y1="0" x2="2207.15" y2="675" stroke="#454b49" stroke-width="3.67" opacity="0.43"/>
<line x1="1564.61" y1="0" x2="2239.61" y2="675" stroke="#454b49" stroke-width="2.34" opacity="0.29"/>
<line x1="-675" y1="675" x2="0" y2="0" stroke="#2e3331" stroke-width="1.72" opacity="0.38"/>
<line x1="-627.75" y1="675" x2="47.25" y2="0" stroke="#2e3331" stroke-width="1.97" opacity="0.27"/>
<line x1="-562.67" y1="675" x2="112.33" y2="0" stroke="#2e3331" stroke-width="2.86" opacity="0.36"/>
<line x1="-497.93" y1="675" x2="177.07" y2="0" stroke="#2e3331" stroke-width="1.93" opacity="0.43"/>
<line x1="-451.89" y1="675" x2="223.11" y2="0" stroke="#2e3331" stroke-width="3.21" opacity="0.35"/>
<line x1="-399.26" y1="675" x2="275.74" y2="0" stroke="#2e3331" stroke-width="3.17" opacity="0.22"/>
<line x1="-350.23" y1="675" x2="324.77" y2="0" stroke="#2e3331" stroke-width="2.95" opacity="0.42"/>
<line x1="-287.86" y1="675" x2="387.14" y2="0" stroke="#2e3331" stroke-width="1.97" opacity="0.27"/>
<line x1="-223.38" y1="675" x2="451.62" y2="0" stroke="#2e3331" stroke-width="2.58" opacity="0.39"/>
<line x1="-156.97" y1="675" x2="518.03" y2="0" stroke="#2e3331" stroke-width="1.63" opacity="0.3"/>
<line x1="-91.14" y1="675" x2="583.86" y2="0" stroke="#2e3331" stroke-width="2.64" opacity="0.3"/>
<line x1="-45.57" y1="675" x2="629.43" y2="0" stroke="#2e3331" stroke-width="3.23" opacity="0.38"/>
<line x1="8.51" y1="675" x2="683.51" y2="0" stroke="#2e3331" stroke-width="2.92" opacity="0.4"/>
<line x1="61.25" y1="675" x2="736.25" y2="0" stroke="#2e3331" stroke-width="2.07" opacity="0.44"/>
<line x1="126.76" y1="675" x2="801.76" y2="0" stroke="#2e3331" stroke-width="3.19" opacity="0.22"/>
<line x1="187.17" y1="675" x2="862.17" y2="0" stroke="#2e3331" stroke-width="2.3" opacity="0.38"/>
<line x1="233.86" y1="675" x2="908.86" y2="0" stroke="#2e3331" stroke-width="2.14" opacity="0.39"/>
<line x1="283.08" y1="675" x2="958.08" y2="0" stroke="#2e3331" stroke-width="1.8" opacity="0.38"/>
<line x1="345.17" y1="675" x2="1020.17" y2="0" stroke="#2e3331" stroke-width="2.68" opacity="0.24"/>
<line x1="398.59" y1="675" x2="1073.59" y2="0" stroke="#2e3331" stroke-width="2.49" opacity="0.44"/>
<line x1="449.54" y1="675" x2="1124.54" y2="0" stroke="#2e3331" stroke-width="2.89" opacity="0.27"/>
<line x1="497.15" y1="675" x2="1172.15" y2="0" stroke="#2e3331" stroke-width="2.59" opacity="0.29"/>
<line x1="563.57" y1="675" x2="1238.57" y2="0" stroke="#2e3331" stroke-width="2.35" opacity="0.3"/>
<line x1="621.68" y1="675" x2="1296.68" y2="0" stroke="#2e3331" stroke-width="2.45" opacity="0.35"/>
<line x1="689.41" y1="675" x2="1364.41" y2="0" stroke="#2e3331" stroke-width="3.2" opacity="0.31"/>
<line x1="746.55" y1="675" x2="1421.55" y2="0" stroke="#2e3331" stroke-width="1.72" opacity="0.24"/>
<line x1="798.13" y1="675" x2="1473.13" y2="0" stroke="#2e3331" stroke-width="3.05" opacity="0.39"/>
<line x1="862.81" y1="675" x2="1537.81" y2="0" stroke="#2e3331" stroke-width="1.67" opacity="0.42"/>
<line x1="919.27" y1="675" x2="1594.27" y2="0" stroke="#2e3331" stroke-width="3.21" opacity="0.28"/>
<line x1="979.61" y1="675" x2="1654.61" y2="0" stroke="#2e3331" stroke-width="2.41" opacity="0.24"/>
<line x1="1035.41" y1="675" x2="1710.41" y2="0" stroke="#2e3331" stroke-width="2.4" opacity="0.22"/>
<line x1="1094.74" y1="675" x2="1769.74" y2="0" stroke="#2e3331" stroke-width="2.5" opacity="0.28"/>
<line x1="1142.35" y1="675" x2="1817.35" y2="0" stroke="#2e3331" stroke-width="2.9" opacity="0.22"/>
<line x1="1200.17" y1="675" x2="1875.17" y2="0" stroke="#2e3331" stroke-width="2.13" opacity="0.24"/>
<line x1="1260.32" y1="675" x2="1935.32" y2="0" stroke="#2e3331" stroke-width="2.18" opacity="0.27"/>
<line x1="1307.16" y1="675" x2="1982.16" y2="0" stroke="#2e3331" stroke-width="2.94" opacity="0.36"/>
<line x1="1368" y1="675" x2="2043" y2="0" stroke="#2e3331" stroke-width="2.81" opacity="0.21"/>
<line x1="1423.78" y1="675" x2="2098.78" y2="0" stroke="#2e3331" stroke-width="3.24" opacity="0.44"/>
<line x1="1483.1" y1="675" x2="2158.1" y2="0" stroke="#2e3331" stroke-width="2.76" opacity="0.25"/>
<line x1="1550.81" y1="675" x2="2225.81" y2="0" stroke="#2e3331" stroke-width="2.58" opacity="0.42"/>
</g>
<rect width="900" height="675" fill="url(#key-service-pewarnaan)"/>
<rect width="900" height="675" fill="url(#vig-service-pewarnaan)"/>
</svg>
